<?xml version="1.0" encoding="UTF-8" standalone="no"?>
<svg
   xmlns:dc="http://purl.org/dc/elements/1.1/"
   xmlns:cc="http://creativecommons.org/ns#"
   xmlns:rdf="http://www.w3.org/1999/02/22-rdf-syntax-ns#"
   xmlns:svg="http://www.w3.org/2000/svg"
   xmlns="http://www.w3.org/2000/svg"
   xmlns:xlink="http://www.w3.org/1999/xlink"
   xmlns:sodipodi="http://sodipodi.sourceforge.net/DTD/sodipodi-0.dtd"
   xmlns:inkscape="http://www.inkscape.org/namespaces/inkscape"
   class="h-5 w-5"
   viewBox="0 0 19.89815 19.89815"
   version="1.1"
   id="svg4"
   sodipodi:docname="app-icon.svg"
   inkscape:version="0.92.3 (2405546, 2018-03-11)"
   width="19.898149"
   height="19.898149"
   style="fill:currentColor"
   inkscape:export-filename="C:\Users\Jonas Fluhrer\Projects\never-have-i-ever-vue\public\img\icons\homescreen512.png"
   inkscape:export-xdpi="2470.1799"
   inkscape:export-ydpi="2470.1799">
  <metadata
     id="metadata10">
    <rdf:RDF>
      <cc:Work
         rdf:about="">
        <dc:format>image/svg+xml</dc:format>
        <dc:type
           rdf:resource="http://purl.org/dc/dcmitype/StillImage" />
        <dc:title />
      </cc:Work>
    </rdf:RDF>
  </metadata>
  <defs
     id="defs8">
    <linearGradient
       inkscape:collect="always"
       id="linearGradient825">
      <stop
         style="stop-color:#f67730;stop-opacity:1"
         offset="0"
         id="stop821" />
      <stop
         id="stop829"
         offset="0.5021295"
         style="stop-color:#dd1c4e;stop-opacity:1" />
      <stop
         style="stop-color:#24adb5;stop-opacity:1"
         offset="1"
         id="stop823" />
    </linearGradient>
    <linearGradient
       inkscape:collect="always"
       xlink:href="#linearGradient825"
       id="linearGradient827"
       x1="0"
       y1="2.7118645"
       x2="21.80493"
       y2="19.050692"
       gradientUnits="userSpaceOnUse" />
  </defs>
  <sodipodi:namedview
     pagecolor="#ffffff"
     bordercolor="#666666"
     borderopacity="1"
     objecttolerance="10"
     gridtolerance="10"
     guidetolerance="10"
     inkscape:pageopacity="0"
     inkscape:pageshadow="2"
     inkscape:window-width="1058"
     inkscape:window-height="1018"
     id="namedview6"
     showgrid="false"
     inkscape:zoom="16.68772"
     inkscape:cx="10.278941"
     inkscape:cy="3.585052"
     inkscape:window-x="2269"
     inkscape:window-y="21"
     inkscape:window-maximized="0"
     inkscape:current-layer="svg4"
     fit-margin-top="0"
     fit-margin-left="0"
     fit-margin-right="0"
     fit-margin-bottom="0" />
  <rect
     style="opacity:1;fill:url(#linearGradient827);fill-opacity:1;stroke:none;stroke-width:12.57789898;stroke-linecap:round;stroke-linejoin:round;stroke-miterlimit:4;stroke-dasharray:none;stroke-opacity:1;paint-order:stroke fill markers"
     id="rect819"
     width="19.898149"
     height="19.898149"
     x="0"
     y="0"
     ry="0" />
  <path
     d="M 11.970724,3.663193 A 0.8441309,0.8441309 0 0 0 10.746735,3.3382026 C 10.45551,3.5323527 10.228438,3.8092276 10.052859,4.0810378 9.8722148,4.359601 9.7126741,4.6829031 9.5717042,5.0230879 9.2897645,5.7017691 9.0534079,6.5155113 8.8626343,7.3309418 A 26.476165,26.476165 0 0 0 8.345182,10.352932 2.2285056,2.2285056 0 0 1 7.5474783,9.4522427 C 7.2706034,8.8782337 7.2115142,8.1573459 7.2115142,7.2119193 A 0.8441309,0.8441309 0 0 0 5.7705828,6.6151188 5.8928778,5.8928778 0 0 0 4.0401145,10.793568 5.9089163,5.9089163 0 1 0 14.127479,6.6151188 C 13.627753,6.1162374 13.30023,5.7836499 12.98959,5.3767787 12.683171,4.9749724 12.378439,4.4794676 11.970724,3.663193 Z M 11.738588,14.271388 A 2.5323927,2.5323927 0 0 1 7.416638,12.48183 c 0,0 0.7419911,0.422065 2.1103273,0.422065 0,-0.844131 0.4220657,-3.3765246 1.0551637,-3.7985901 0.422065,0.8441312 0.663487,1.0914621 1.157303,1.5861231 a 2.5239514,2.5239514 0 0 1 0.741991,1.790402 2.5239514,2.5239514 0 0 1 -0.741991,1.790401 z"
     id="path2"
     style="clip-rule:evenodd;fill:#ffffff;fill-opacity:1;fill-rule:evenodd;stroke-width:0.84413093"
     inkscape:connector-curvature="0" />
</svg>
