<?xml version="1.0" encoding="UTF-8" standalone="no"?>
<svg
   xmlns:dc="http://purl.org/dc/elements/1.1/"
   xmlns:cc="http://creativecommons.org/ns#"
   xmlns:rdf="http://www.w3.org/1999/02/22-rdf-syntax-ns#"
   xmlns:svg="http://www.w3.org/2000/svg"
   xmlns="http://www.w3.org/2000/svg"
   xmlns:xlink="http://www.w3.org/1999/xlink"
   xmlns:sodipodi="http://sodipodi.sourceforge.net/DTD/sodipodi-0.dtd"
   xmlns:inkscape="http://www.inkscape.org/namespaces/inkscape"
   class="h-5 w-5"
   viewBox="0 0 19.89815 19.89815"
   version="1.1"
   id="svg4"
   sodipodi:docname="fire.svg"
   inkscape:version="0.92.3 (2405546, 2018-03-11)"
   width="19.898149"
   height="19.898149"
   style="fill:currentColor"
   inkscape:export-filename="C:\Users\Jonas Fluhrer\Projects\never-have-i-ever-vue\public\img\icons\fire192.png"
   inkscape:export-xdpi="926.32001"
   inkscape:export-ydpi="926.32001">
  <metadata
     id="metadata10">
    <rdf:RDF>
      <cc:Work
         rdf:about="">
        <dc:format>image/svg+xml</dc:format>
        <dc:type
           rdf:resource="http://purl.org/dc/dcmitype/StillImage" />
        <dc:title />
      </cc:Work>
    </rdf:RDF>
  </metadata>
  <defs
     id="defs8">
    <linearGradient
       inkscape:collect="always"
       id="linearGradient4524">
      <stop
         style="stop-color:#f59e0b;stop-opacity:1"
         offset="0"
         id="stop4520" />
      <stop
         style="stop-color:#ec4899;stop-opacity:1"
         offset="1"
         id="stop4522" />
    </linearGradient>
    <linearGradient
       inkscape:collect="always"
       xlink:href="#linearGradient4524"
       id="linearGradient4526"
       x1="2.999995"
       y1="9.9995747"
       x2="17"
       y2="9.9995747"
       gradientUnits="userSpaceOnUse"
       gradientTransform="matrix(0.90844528,0,0,0.90844528,0.86457809,0.86501037)" />
  </defs>
  <sodipodi:namedview
     pagecolor="#ffffff"
     bordercolor="#666666"
     borderopacity="1"
     objecttolerance="10"
     gridtolerance="10"
     guidetolerance="10"
     inkscape:pageopacity="0"
     inkscape:pageshadow="2"
     inkscape:window-width="1596"
     inkscape:window-height="1027"
     id="namedview6"
     showgrid="false"
     inkscape:zoom="23.6"
     inkscape:cx="4.3621487"
     inkscape:cy="9.5011822"
     inkscape:window-x="1996"
     inkscape:window-y="13"
     inkscape:window-maximized="1"
     inkscape:current-layer="svg4"
     fit-margin-top="0"
     fit-margin-left="0"
     fit-margin-right="0"
     fit-margin-bottom="0" />
  <circle
     style="opacity:1;fill:#24adb5;fill-opacity:1;stroke:none;stroke-width:16.63232231;stroke-linecap:round;stroke-linejoin:round;stroke-miterlimit:4;stroke-dasharray:none;stroke-opacity:1;paint-order:stroke fill markers"
     id="path821"
     cx="-10.051"
     cy="9.9491491"
     r="9.9490004" />
  <path
     d="M 12.124757,3.1842712 A 0.90844528,0.90844528 0 0 0 10.807512,2.8345198 C 10.494099,3.0434622 10.249727,3.3414323 10.060769,3.6339517 9.8663624,3.9337386 9.6946662,4.2816731 9.5429559,4.6477766 9.2395351,5.3781665 8.9851704,6.2539078 8.7798619,7.131466 A 28.493386,28.493386 0 0 0 8.2229848,10.383702 2.3982956,2.3982956 0 0 1 7.3645041,9.4143889 C 7.066534,8.7966461 7.0029429,8.0208339 7.0029429,7.0033752 A 0.90844528,0.90844528 0 0 0 5.4522268,6.3611044 6.3418565,6.3418565 0 0 0 3.589914,10.85791 6.3591169,6.3591169 0 1 0 14.445835,6.3611044 C 13.908036,5.8242132 13.555559,5.4662858 13.221251,5.0284151 12.891486,4.5959952 12.563537,4.0627378 12.124757,3.1842712 Z M 11.874935,14.600705 A 2.7253358,2.7253358 0 0 1 7.2236951,12.674801 c 0,0 0.7985234,0.454222 2.2711131,0.454222 0,-0.908446 0.454223,-3.6337824 1.1355558,-4.0880051 0.454224,0.9084456 0.714039,1.1746211 1.245479,1.7069701 a 2.7162514,2.7162514 0 0 1 0.798524,1.926813 2.7162514,2.7162514 0 0 1 -0.798524,1.926811 z"
     id="path2"
     style="clip-rule:evenodd;fill:url(#linearGradient4526);fill-opacity:1;fill-rule:evenodd;stroke-width:0.9084453"
     inkscape:connector-curvature="0" />
</svg>
