<?xml version="1.0" encoding="UTF-8" standalone="no"?>
<svg
   xmlns:dc="http://purl.org/dc/elements/1.1/"
   xmlns:cc="http://creativecommons.org/ns#"
   xmlns:rdf="http://www.w3.org/1999/02/22-rdf-syntax-ns#"
   xmlns:svg="http://www.w3.org/2000/svg"
   xmlns="http://www.w3.org/2000/svg"
   xmlns:xlink="http://www.w3.org/1999/xlink"
   xmlns:sodipodi="http://sodipodi.sourceforge.net/DTD/sodipodi-0.dtd"
   xmlns:inkscape="http://www.inkscape.org/namespaces/inkscape"
   class="h-5 w-5"
   viewBox="0 0 640.00002 1136"
   version="1.1"
   id="svg4"
   sodipodi:docname="splash-screen.svg"
   inkscape:version="0.92.3 (2405546, 2018-03-11)"
   width="640"
   height="1136"
   style="fill:currentColor">
  <metadata
     id="metadata10">
    <rdf:RDF>
      <cc:Work
         rdf:about="">
        <dc:format>image/svg+xml</dc:format>
        <dc:type
           rdf:resource="http://purl.org/dc/dcmitype/StillImage" />
        <dc:title></dc:title>
      </cc:Work>
    </rdf:RDF>
  </metadata>
  <defs
     id="defs8">
    <linearGradient
       inkscape:collect="always"
       id="linearGradient825">
      <stop
         style="stop-color:#f67730;stop-opacity:1"
         offset="0"
         id="stop821" />
      <stop
         id="stop829"
         offset="0.5021295"
         style="stop-color:#dd1c4e;stop-opacity:1" />
      <stop
         style="stop-color:#24adb5;stop-opacity:1"
         offset="1"
         id="stop823" />
    </linearGradient>
    <linearGradient
       inkscape:collect="always"
       xlink:href="#linearGradient825"
       id="linearGradient827"
       x1="0"
       y1="2.7118645"
       x2="21.80493"
       y2="19.050692"
       gradientUnits="userSpaceOnUse"
       gradientTransform="matrix(32.163792,0,0,57.090731,1.1071045e-5,0.0028736)" />
  </defs>
  <sodipodi:namedview
     pagecolor="#ffffff"
     bordercolor="#666666"
     borderopacity="1"
     objecttolerance="10"
     gridtolerance="10"
     guidetolerance="10"
     inkscape:pageopacity="0"
     inkscape:pageshadow="2"
     inkscape:window-width="1825"
     inkscape:window-height="1057"
     id="namedview6"
     showgrid="false"
     inkscape:zoom="0.36875"
     inkscape:cx="269.09055"
     inkscape:cy="692.2786"
     inkscape:window-x="2007"
     inkscape:window-y="-8"
     inkscape:window-maximized="1"
     inkscape:current-layer="svg4"
     fit-margin-top="0"
     fit-margin-left="0"
     fit-margin-right="0"
     fit-margin-bottom="0" />
  <rect
     style="opacity:1;fill:url(#linearGradient827);fill-opacity:1;stroke:none;stroke-width:538.98236084;stroke-linecap:round;stroke-linejoin:round;stroke-miterlimit:4;stroke-dasharray:none;stroke-opacity:1;paint-order:stroke fill markers"
     id="rect819"
     width="640"
     height="1136"
     x="0"
     y="0"
     ry="0" />
  <path
     d="m 352.56617,387.86044 a 13.597538,13.597538 0 0 0 -19.71642,-5.23358 c -4.69114,3.12663 -8.34889,7.58704 -11.17719,11.96523 -2.90987,4.48777 -5.4798,9.69561 -7.75059,15.1741 -4.54158,10.93274 -8.34889,24.04165 -11.42193,37.1764 a 426.4868,426.4868 0 0 0 -8.3353,48.67938 35.897502,35.897502 0 0 1 -12.84967,-14.50881 c -4.45999,-9.24617 -5.41182,-20.85863 -5.41182,-36.08751 a 13.597538,13.597538 0 0 0 -23.211,-9.61338 94.924414,94.924414 0 0 0 -27.87495,67.30704 95.182769,95.182769 0 1 0 162.49059,-67.30704 c -8.04975,-8.03648 -13.3256,-13.39408 -18.32949,-19.94863 -4.9359,-6.47232 -9.84463,-14.45392 -16.41223,-27.6032 z m -3.73933,170.8804 a 40.792616,40.792616 0 0 1 -69.61939,-28.8259 c 0,0 11.95224,6.79776 33.99385,6.79776 0,-13.59702 6.79878,-54.38975 16.99692,-61.18751 6.79876,13.59702 10.68767,17.58065 18.64222,25.54943 a 40.656641,40.656641 0 0 1 11.95224,28.84032 40.656641,40.656641 0 0 1 -11.95224,28.84042 z"
     id="path2"
     style="clip-rule:evenodd;fill:#ffffff;fill-opacity:1;fill-rule:evenodd;stroke-width:13.5975399"
     inkscape:connector-curvature="0" />
  <text
     xml:space="preserve"
     style="font-style:normal;font-weight:normal;font-size:47.88127136px;line-height:1.25;font-family:sans-serif;letter-spacing:0px;word-spacing:0px;fill:#000000;fill-opacity:1;stroke:none;stroke-width:1.19703174"
     x="119.46231"
     y="677.33124"
     id="text820"><tspan
       sodipodi:role="line"
       id="tspan818"
       x="119.46231"
       y="677.33124"
       style="font-style:normal;font-variant:normal;font-weight:900;font-stretch:normal;font-family:'Segoe UI';-inkscape-font-specification:'Segoe UI Heavy';fill:#ffffff;fill-opacity:1;stroke-width:1.19703174">Ich hab' noch nie</tspan></text>
</svg>
