<?xml version="1.0" encoding="UTF-8" standalone="no"?>
<svg
   xmlns:dc="http://purl.org/dc/elements/1.1/"
   xmlns:cc="http://creativecommons.org/ns#"
   xmlns:rdf="http://www.w3.org/1999/02/22-rdf-syntax-ns#"
   xmlns:svg="http://www.w3.org/2000/svg"
   xmlns="http://www.w3.org/2000/svg"
   xmlns:sodipodi="http://sodipodi.sourceforge.net/DTD/sodipodi-0.dtd"
   xmlns:inkscape="http://www.inkscape.org/namespaces/inkscape"
   class="h-5 w-5"
   viewBox="0 0 462.2845 349.44492"
   version="1.1"
   id="svg4"
   sodipodi:docname="splash-screen-icon.svg"
   inkscape:version="0.92.3 (2405546, 2018-03-11)"
   width="462.28448"
   height="349.44492"
   style="fill:currentColor"
   inkscape:export-filename="C:\Users\Jonas Fluhrer\Projects\never-have-i-ever-vue\public\img\splash\iOS-750x1334-portrait.png"
   inkscape:export-xdpi="96"
   inkscape:export-ydpi="96">
  <metadata
     id="metadata10">
    <rdf:RDF>
      <cc:Work
         rdf:about="">
        <dc:format>image/svg+xml</dc:format>
        <dc:type
           rdf:resource="http://purl.org/dc/dcmitype/StillImage" />
        <dc:title />
      </cc:Work>
    </rdf:RDF>
  </metadata>
  <defs
     id="defs8" />
  <sodipodi:namedview
     pagecolor="#ffffff"
     bordercolor="#666666"
     borderopacity="1"
     objecttolerance="10"
     gridtolerance="10"
     guidetolerance="10"
     inkscape:pageopacity="0"
     inkscape:pageshadow="2"
     inkscape:window-width="1596"
     inkscape:window-height="1027"
     id="namedview6"
     showgrid="false"
     inkscape:zoom="0.5"
     inkscape:cx="-20.079901"
     inkscape:cy="384.15431"
     inkscape:window-x="1996"
     inkscape:window-y="13"
     inkscape:window-maximized="1"
     inkscape:current-layer="svg4"
     fit-margin-top="0"
     fit-margin-left="0"
     fit-margin-right="0"
     fit-margin-bottom="0" />
  <path
     d="M 269.30549,10.834264 A 15.934615,15.967531 0 0 0 246.2003,4.6884939 c -5.49742,3.67158 -9.78385,8.9094201 -13.09827,14.0507201 -3.41,5.26996 -6.42164,11.38551 -9.08272,17.81888 -5.32216,12.83827 -9.78386,28.232 -13.38508,43.65609 a 499.78922,500.82163 0 0 0 -9.76792,57.163986 42.067385,42.154284 0 0 1 -15.05821,-17.03764 c -5.22655,-10.85774 -6.34198,-24.494196 -6.34198,-42.377396 A 15.934615,15.967531 0 0 0 152.26573,66.674174 111.23955,111.46933 0 0 0 119.59977,145.71254 111.54231,111.77272 0 1 0 310.01844,66.674174 c -9.4333,-9.4372 -15.61594,-15.72861 -21.47987,-23.42559 -5.78426,-7.60042 -11.53668,-16.97318 -19.23308,-32.41432 z m -4.38204,200.664126 a 47.803847,47.902595 0 0 1 -81.58522,-33.85014 c 0,0 14.00654,7.98258 39.83655,7.98258 0,-15.96692 7.96732,-63.86965 19.91826,-71.85223 7.9673,15.96693 12.52461,20.64489 21.84635,30.00259 a 47.644502,47.742921 0 0 1 14.00654,33.86706 47.644502,47.742921 0 0 1 -14.00654,33.86718 z"
     id="path2"
     style="clip-rule:evenodd;fill:#ffffff;fill-opacity:1;fill-rule:evenodd;stroke-width:15.95106602"
     inkscape:connector-curvature="0" />
  <text
     xml:space="preserve"
     style="font-style:normal;font-weight:normal;font-size:56.16878891px;line-height:1.25;font-family:sans-serif;letter-spacing:0px;word-spacing:0px;fill:#ffffff;fill-opacity:1;stroke:none;stroke-width:1.40421963;"
     x="-3.8670895"
     y="346.40097"
     id="text820"
     transform="scale(0.99896876,1.0010323)"><tspan
       sodipodi:role="line"
       id="tspan818"
       x="-3.8670895"
       y="346.40097"
       style="font-style:normal;font-variant:normal;font-weight:900;font-stretch:normal;font-family:'Segoe UI';-inkscape-font-specification:'Segoe UI Heavy';fill:#ffffff;fill-opacity:1;stroke-width:1.40421963;">Ich hab' noch nie</tspan></text>
</svg>
