<?xml version="1.0" encoding="UTF-8" standalone="no"?>
<svg
   xmlns:dc="http://purl.org/dc/elements/1.1/"
   xmlns:cc="http://creativecommons.org/ns#"
   xmlns:rdf="http://www.w3.org/1999/02/22-rdf-syntax-ns#"
   xmlns:svg="http://www.w3.org/2000/svg"
   xmlns="http://www.w3.org/2000/svg"
   xmlns:xlink="http://www.w3.org/1999/xlink"
   xmlns:sodipodi="http://sodipodi.sourceforge.net/DTD/sodipodi-0.dtd"
   xmlns:inkscape="http://www.inkscape.org/namespaces/inkscape"
   class="h-5 w-5"
   viewBox="0 0 750.00002 1334"
   version="1.1"
   id="svg4"
   sodipodi:docname="splash-screen.svg"
   inkscape:version="0.92.3 (2405546, 2018-03-11)"
   width="750"
   height="1334"
   style="fill:currentColor"
   inkscape:export-filename="C:\Users\Jonas Fluhrer\Projects\never-have-i-ever-vue\public\img\splash\iOS-750x1334-portrait.png"
   inkscape:export-xdpi="96"
   inkscape:export-ydpi="96">
  <metadata
     id="metadata10">
    <rdf:RDF>
      <cc:Work
         rdf:about="">
        <dc:format>image/svg+xml</dc:format>
        <dc:type
           rdf:resource="http://purl.org/dc/dcmitype/StillImage" />
        <dc:title></dc:title>
      </cc:Work>
    </rdf:RDF>
  </metadata>
  <defs
     id="defs8">
    <linearGradient
       inkscape:collect="always"
       id="linearGradient825">
      <stop
         style="stop-color:#f67730;stop-opacity:1"
         offset="0"
         id="stop821" />
      <stop
         id="stop829"
         offset="0.5021295"
         style="stop-color:#dd1c4e;stop-opacity:1" />
      <stop
         style="stop-color:#24adb5;stop-opacity:1"
         offset="1"
         id="stop823" />
    </linearGradient>
    <linearGradient
       inkscape:collect="always"
       xlink:href="#linearGradient825"
       id="linearGradient827"
       x1="0"
       y1="2.7118645"
       x2="21.80493"
       y2="19.050692"
       gradientUnits="userSpaceOnUse"
       gradientTransform="matrix(37.691944,0,0,67.0414,1.2973881e-5,0.00339525)" />
  </defs>
  <sodipodi:namedview
     pagecolor="#ffffff"
     bordercolor="#666666"
     borderopacity="1"
     objecttolerance="10"
     gridtolerance="10"
     guidetolerance="10"
     inkscape:pageopacity="0"
     inkscape:pageshadow="2"
     inkscape:window-width="1823"
     inkscape:window-height="1057"
     id="namedview6"
     showgrid="false"
     inkscape:zoom="0.52149125"
     inkscape:cx="112.5771"
     inkscape:cy="707.93506"
     inkscape:window-x="2009"
     inkscape:window-y="341"
     inkscape:window-maximized="1"
     inkscape:current-layer="svg4"
     fit-margin-top="0"
     fit-margin-left="0"
     fit-margin-right="0"
     fit-margin-bottom="0" />
  <rect
     style="opacity:1;fill:url(#linearGradient827);fill-opacity:1;stroke:none;stroke-width:632.27197266;stroke-linecap:round;stroke-linejoin:round;stroke-miterlimit:4;stroke-dasharray:none;stroke-opacity:1;paint-order:stroke fill markers"
     id="rect819"
     width="750"
     height="1334"
     x="0"
     y="3.528595e-005"
     ry="0" />
  <path
     d="m 413.16349,455.4629 a 15.934615,15.967531 0 0 0 -23.10519,-6.14577 c -5.49742,3.67158 -9.78385,8.90942 -13.09827,14.05072 -3.41,5.26996 -6.42164,11.38551 -9.08272,17.81888 -5.32216,12.83827 -9.78386,28.232 -13.38508,43.65609 a 499.78922,500.82163 0 0 0 -9.76792,57.16399 42.067385,42.154284 0 0 1 -15.05821,-17.03764 c -5.22655,-10.85774 -6.34198,-24.4942 -6.34198,-42.3774 a 15.934615,15.967531 0 0 0 -27.20039,-11.28896 111.23955,111.46933 0 0 0 -32.66596,79.03837 111.54231,111.77272 0 1 0 190.41867,-79.03837 c -9.4333,-9.4372 -15.61594,-15.72861 -21.47987,-23.42559 -5.78426,-7.60042 -11.53668,-16.97318 -19.23308,-32.41432 z m -4.38204,200.66413 a 47.803847,47.902595 0 0 1 -81.58522,-33.85014 c 0,0 14.00654,7.98258 39.83655,7.98258 0,-15.96692 7.96732,-63.86965 19.91826,-71.85223 7.9673,15.96693 12.52461,20.64489 21.84635,30.00259 a 47.644502,47.742921 0 0 1 14.00654,33.86706 47.644502,47.742921 0 0 1 -14.00654,33.86718 z"
     id="path2"
     style="clip-rule:evenodd;fill:#ffffff;fill-opacity:1;fill-rule:evenodd;stroke-width:15.95106602"
     inkscape:connector-curvature="0" />
  <text
     xml:space="preserve"
     style="font-style:normal;font-weight:normal;font-size:56.16878891px;line-height:1.25;font-family:sans-serif;letter-spacing:0px;word-spacing:0px;fill:#000000;fill-opacity:1;stroke:none;stroke-width:1.40421963"
     x="140.13942"
     y="794.56696"
     id="text820"
     transform="scale(0.99896874,1.0010323)"><tspan
       sodipodi:role="line"
       id="tspan818"
       x="140.13942"
       y="794.56696"
       style="font-style:normal;font-variant:normal;font-weight:900;font-stretch:normal;font-family:'Segoe UI';-inkscape-font-specification:'Segoe UI Heavy';fill:#ffffff;fill-opacity:1;stroke-width:1.40421963">Ich hab' noch nie</tspan></text>
</svg>
